<svg version="1.1" id="Icon_Set" xmlns="http://www.w3.org/2000/svg" x="0" y="0" viewBox="0 0 512 512" style="enable-background:new 0 0 512 512" xml:space="preserve"><style>.st2{fill:#4c4372}.st3{fill:#d3e6f8}.st4{fill:#a4cff2}.st5{fill:#7babf1}</style><g id="Hospital"><circle cx="256" cy="256" r="207" style="fill:#f0c48a"/><path class="st3" d="M397.508 385.09H114.492V241.083c0-11.154 9.042-20.197 20.197-20.197h242.623c11.154 0 20.197 9.042 20.197 20.197V385.09z"/><path class="st4" d="M165.416 220.886h33.606V383.15h-33.606zM377.311 220.886h-6.131V385.09h26.328V241.083c0-11.154-9.042-20.197-20.197-20.197z"/><path class="st5" d="M327.761 250.794h49.67v36.58h-49.67zM327.761 312.345h49.67v36.58h-49.67zM134.568 250.794h49.67v36.58h-49.67zM134.568 312.345h49.67v36.58h-49.67z"/><path class="st2" d="M397.508 391.09H114.492a6 6 0 0 1-6-6V241.083c0-14.445 11.751-26.197 26.196-26.197h242.623c14.445 0 26.196 11.752 26.196 26.197V385.09a5.999 5.999 0 0 1-5.999 6zm-277.016-12h271.016V241.083c0-7.828-6.369-14.197-14.196-14.197H134.688c-7.828 0-14.196 6.369-14.196 14.197V379.09z"/><path class="st2" d="M377.432 293.374h-49.67a6 6 0 0 1-6-6v-36.58a6 6 0 0 1 6-6h49.67a6 6 0 0 1 6 6v36.58a6 6 0 0 1-6 6zm-43.671-12h37.67v-24.58h-37.67v24.58zM377.432 354.925h-49.67a6 6 0 0 1-6-6v-36.58a6 6 0 0 1 6-6h49.67a6 6 0 0 1 6 6v36.58a6 6 0 0 1-6 6zm-43.671-12h37.67v-24.58h-37.67v24.58z"/><path style="fill:#fff" d="M184.239 157.46h143.523v227.63H184.239z"/><path class="st3" d="M301.522 157.46h26.24v227.63h-26.24z"/><path class="st5" d="M210.478 294.046h91.044v91.044h-91.044zM168.854 126.91h174.292v30.55H168.854z"/><path class="st2" d="M327.761 391.09H184.239a6 6 0 0 1-6-6V157.46a6 6 0 0 1 6-6h143.522a6 6 0 0 1 6 6v227.63a6 6 0 0 1-6 6zm-137.522-12h131.522V163.46H190.239v215.63z"/><path class="st2" d="M343.146 163.46H168.854a6 6 0 0 1-6-6v-30.55a6 6 0 0 1 6-6h174.292a6 6 0 0 1 6 6v30.55a6 6 0 0 1-6 6zm-168.292-12h162.292v-18.55H174.854v18.55zM301.522 391.09h-91.044a6 6 0 0 1-6-6v-91.044a6 6 0 0 1 6-6h91.044a6 6 0 0 1 6 6v91.044a6 6 0 0 1-6 6zm-85.044-12h79.044v-79.044h-79.044v79.044z"/><path class="st2" d="M257.068 391.09a6 6 0 0 1-6-6v-91.044a6 6 0 0 1 12 0v91.044a6 6 0 0 1-6 6zM184.239 293.374h-49.67a6 6 0 0 1-6-6v-36.58a6 6 0 0 1 6-6h49.67a6 6 0 0 1 6 6v36.58a6 6 0 0 1-6 6zm-43.671-12h37.67v-24.58h-37.67v24.58zM184.239 354.925h-49.67a6 6 0 0 1-6-6v-36.58a6 6 0 0 1 6-6h49.67a6 6 0 0 1 6 6v36.58a6 6 0 0 1-6 6zm-43.671-12h37.67v-24.58h-37.67v24.58z"/><path style="fill:#fd919e" d="M289.219 206.299h-21.824v-21.824h-22.79v21.824h-21.824v22.791h21.824v21.824h22.79V229.09h21.824z"/><path class="st2" d="M267.396 256.914h-22.791a6 6 0 0 1-6-6V235.09h-15.824a6 6 0 0 1-6-6v-22.791a6 6 0 0 1 6-6h15.824v-15.824a6 6 0 0 1 6-6h22.791a6 6 0 0 1 6 6v15.824h15.824a6 6 0 0 1 6 6v22.791a6 6 0 0 1-6 6h-15.824v15.824a6 6 0 0 1-6 6zm-16.792-12h10.791V229.09a6 6 0 0 1 6-6h15.824v-10.791h-15.824a6 6 0 0 1-6-6v-15.824h-10.791v15.824a6 6 0 0 1-6 6H228.78v10.791h15.824a6 6 0 0 1 6 6v15.824z"/><path class="st4" d="M200.327 271.275h111.345v22.771H200.327z"/><path class="st5" d="M281.949 271.275h29.723v22.771h-29.723z"/><path class="st2" d="M311.672 300.046H200.328a6 6 0 0 1-6-6v-22.771a6 6 0 0 1 6-6h111.345a6 6 0 0 1 6 6v22.771a6.001 6.001 0 0 1-6.001 6zm-105.344-12h99.345v-10.771h-99.345v10.771z"/></g></svg>